<svg xmlns="http://www.w3.org/2000/svg" viewBox="0 0 32 32">
  <defs>
    <linearGradient id="g" x1="0" y1="0" x2="1" y2="1">
      <stop offset="0%" stop-color="#6366f1"/>
      <stop offset="100%" stop-color="#a78bfa"/>
    </linearGradient>
  </defs>
  <rect width="32" height="32" rx="8" fill="url(#g)"/>
  <path d="M16 8C12 8 9 11 9 14.5c0 2.5 1.5 4.5 3.5 5.5L11 24h10l-1.5-4c2-1 3.5-3 3.5-5.5C23 11 20 8 16 8zm-2 8a1.5 1.5 0 110-3 1.5 1.5 0 010 3zm4 0a1.5 1.5 0 110-3 1.5 1.5 0 010 3z" fill="white"/>
</svg>